<svg xmlns="http://www.w3.org/2000/svg" viewBox="0 0 259.91 89.87"><defs><style>.cls-1{fill:none;stroke:#7c0050;stroke-miterlimit:10;stroke-width:0.25px;}.cls-2{fill:#a57e40;}.cls-3{fill:#1b1b1b;}.cls-4{fill:#e6007e;}.cls-5{fill:#007199;}.cls-6{fill:#d8c300;}.cls-7{fill:#ffed00;}.cls-8{fill:#fff188;}.cls-9{fill:#1d1d1b;}.cls-10{fill:#4e3e19;}</style></defs><g id="OBjects"><line class="cls-1" x1="55.3" y1="84.5" x2="55.2" y2="84.6"/><path class="cls-2" d="M63.72,56.67l-3.49,3.19A3.38,3.38,0,0,1,58.58,61L35.35,67.83l1.91-3,23.74-7,1.52-.46A3.45,3.45,0,0,0,63.72,56.67Z"/><path class="cls-3" d="M27.56,67.66,23.5,85.15,23,87.54l-1.83-.71L24.81,71l-2.64.79A3.38,3.38,0,0,1,18,69.47L4,22.23a3.34,3.34,0,0,1,0-2l.18-.46L6,15.29a3.62,3.62,0,0,0,0,1.93l.25.82L20.49,66.11a3.51,3.51,0,0,0,4.35,2.36Z"/><path class="cls-2" d="M63.72,56.67a3.45,3.45,0,0,1-1.2.63L61,57.76l-23.74,7-1.91,3L23,87.54l.55-2.39,4.06-17.49-2.72.81a3.51,3.51,0,0,1-4.35-2.36L6.25,18,6,17.22a3.62,3.62,0,0,1,0-1.93l.27-.67h0a3.46,3.46,0,0,1,2.1-1.74L46,1.71a3.49,3.49,0,0,1,4.34,2.36L64.88,53A3.51,3.51,0,0,1,63.72,56.67Z"/><path class="cls-4" d="M6.25,14.62,6,15.29A3.91,3.91,0,0,1,6.25,14.62Z"/><path class="cls-5" d="M19.07,7.5a3.49,3.49,0,0,0-.13,2.24L16,10.62l.73.56,3.57-1.12Z"/><path class="cls-6" d="M33.5,62.35l32.89-9.76c-4.17-4.23-11.47-9-17.51-24.23A71.73,71.73,0,0,1,43.83,4.74L11,14.49A65.2,65.2,0,0,0,17.88,43C24.25,55.5,29.68,58.62,33.5,62.35Z"/><path class="cls-7" d="M37.33,57.47l32.89-9.75c-4.29-2.19-12.69-11-19.42-22.09a50.64,50.64,0,0,1-7-20.22L11,15.17a42.83,42.83,0,0,0,8.2,24.41C25.94,48.84,33.75,56.09,37.33,57.47Z"/><path class="cls-8" d="M38.17,54.1l32.88-9.76a83.32,83.32,0,0,1-18.48-20.5A83.41,83.41,0,0,1,43.82,5.41L10.94,15.17a65.59,65.59,0,0,0,9.5,21.33A65.83,65.83,0,0,0,38.17,54.1Z"/><path class="cls-3" d="M44,9.09l-2.58-1.4-2-1.45L35,7.56,33,3.4v0L29.8,2,20.23,4.8,19.07,7.5l2,4.18L16.63,13l.86,1.78-1.88,2.74Zm-18-5a1.34,1.34,0,0,1,0,2.68h-.08a1.31,1.31,0,0,1-1.25-1.19s0,0,0,0a.49.49,0,0,1,0-.12A1.34,1.34,0,0,1,26,4.1Z"/><path class="cls-3" d="M27.35,5.44A1.33,1.33,0,0,1,26,6.78h-.08a1.16,1.16,0,1,0-1.25-1.21.49.49,0,0,1,0-.12,1.34,1.34,0,1,1,2.68,0Z"/><path class="cls-9" d="M50.43,30.29a1.89,1.89,0,1,1-1.89-1.89A1.89,1.89,0,0,1,50.43,30.29Z"/><path class="cls-9" d="M41.41,32.79a1.89,1.89,0,1,1-1.89-1.89A1.89,1.89,0,0,1,41.41,32.79Z"/><path class="cls-9" d="M32.39,35.64a1.9,1.9,0,1,1-1.89-1.89A1.89,1.89,0,0,1,32.39,35.64Z"/><path class="cls-10" d="M106.64,29.93c-3.79,1.15-11.12.16-11.12.16L96,58c.41,12.28,6.1,9.64,5.28,11.87-.91,2.8-6.35,6.26-11.21,6.26-6.51,0-12.28-4-12.28-13.6l.57-33.62a73.64,73.64,0,0,0-15,1.15c-.42.08-.58-.41-.58-.41s-3.79-9.56,5-14.18c8-4.2,16.07-.66,39-.33,3.21,0,5.35-.08,5.35-.08a.74.74,0,0,1,.66.41S116.37,27,106.64,29.93Z"/><path class="cls-10" d="M127.9,76.41c-13.27,0-23.07-10-23.07-22.42s9.8-22.42,23.07-22.42S151,41.63,151,54,141.42,76.41,127.9,76.41Zm0-9.32c4.95,0,6.84-5.85,6.84-13.1,0-7.09-2.06-13.1-6.84-13.1s-6.84,6-6.84,13.1C121.06,60.91,123.12,67.09,127.9,67.09Z"/><path class="cls-10" d="M175.62,76.41c-13.52,0-20.93-2.48-20.93-2.48a.45.45,0,0,1-.42-.49V16.91a.46.46,0,0,1,.42-.5s7.41-2.31,20.93-2.31c18,0,29.67,13.77,29.67,31.07S195,76.41,175.62,76.41Zm-3.22-9.07c10.22.5,14.67-11,14.67-22.58,0-10-4.28-23.24-14.67-21.67Z"/><path class="cls-10" d="M229.84,76.41c-13.26,0-23.07-10-23.07-22.42s9.81-22.42,23.07-22.42S252.92,41.63,252.92,54,243.36,76.41,229.84,76.41Zm0-9.32c4.95,0,6.84-5.85,6.84-13.1,0-7.09-2.06-13.1-6.84-13.1S223,46.9,223,54C223,60.91,225.06,67.09,229.84,67.09Z"/></g></svg>