<svg xmlns="http://www.w3.org/2000/svg" viewBox="0 0 441.13 425.91"><defs><style>.cls-1{opacity:0.42;}.cls-2,.cls-3,.cls-6,.cls-7{fill:#a57e40;}.cls-2{opacity:0.33;}.cls-4{fill:#4e3e19;}.cls-5{fill:#ffccbc;}.cls-6{opacity:0.74;}.cls-7{opacity:0.61;}.cls-10,.cls-8{fill:#fff;}.cls-9{fill:#1b1b1b;opacity:0.28;}.cls-10{stroke:#78909c;stroke-miterlimit:10;}.cls-11{fill:#455a64;}.cls-12{fill:#b0bec5;}.cls-13{fill:#f57c00;}.cls-14{fill:#afb42b;}.cls-15{fill:#ffab91;}.cls-16{fill:#37474f;}.cls-17{fill:#c62828;}.cls-18{fill:#9e9d24;}.cls-19{fill:#ffe0b2;}</style></defs><g id="OBJECTS"><g class="cls-1"><path class="cls-2" d="M46.68,465.45h397a214.9,214.9,0,0,0,17.25-84.63c0-106.71-77.48-195.3-179.25-212.63a124.67,124.67,0,0,0-4.81-21,54.27,54.27,0,1,0-63.93-74A125.42,125.42,0,0,0,61.9,267,216,216,0,0,0,46.68,465.45Z" transform="translate(-29.44 -40.53)"/><path class="cls-3" d="M202.75,463.09a88.34,88.34,0,0,1,3.42-22.31c-.95.39-1.88.82-2.77,1.29a46.3,46.3,0,0,1-2.28,8.25c-.09.2-.6.2-.61,0a29.91,29.91,0,0,1,.67-6.94,26,26,0,0,0-4,3.14c.67,2.27,1.38,4.54,1.95,6.83a39.22,39.22,0,0,1,1.61,7.38c0,.29-.59.49-.77.21a45.92,45.92,0,0,1-3.07-7.08c-.68-1.66-1.26-3.34-1.83-5a21.56,21.56,0,0,0-3.48,6.12,45.08,45.08,0,0,1,6.2,8.14Z" transform="translate(-29.44 -40.53)"/><path class="cls-4" d="M206.62,463.09c0-.72,0-1.45,0-2.17a105.71,105.71,0,0,1,1-12.24c.3-2,.56-4.09,1-6.14.22-1,.46-1.9.7-2.85-.55.16-1.09.32-1.63.5-.09.33-.19.65-.28,1a88.93,88.93,0,0,0-3.37,21.93Z" transform="translate(-29.44 -40.53)"/><path class="cls-4" d="M212.18,463.09q.27-12-.65-23.92l-1,.22c-.14,1.34-.26,2.69-.42,4-.26,2.22-.51,4.44-.71,6.66a123.3,123.3,0,0,0-.49,13Z" transform="translate(-29.44 -40.53)"/><path class="cls-3" d="M233.2,463.09a99.1,99.1,0,0,1,10-11.2c-.24-.43-.5-.85-.77-1.27a18.36,18.36,0,0,1-2.86,2.85c-.2.15-.56,0-.5-.15a12.38,12.38,0,0,1,2.61-3.64l.06-.06c-.36-.5-.75-1-1.15-1.45-.19.28-.38.57-.56.86-1.38,2.18-2.62,4.4-4.18,6.54-.23.31-1,.28-.87-.08a35.24,35.24,0,0,1,4.24-8.79,26.5,26.5,0,0,0-2.66-2.29c-2.17,6.22-4.2,12.45-6.16,18.68Z" transform="translate(-29.44 -40.53)"/><path class="cls-3" d="M213.69,463.09h5.11a173.19,173.19,0,0,1,12-22c-.87-.37-1.76-.71-2.67-1-.17.25-.35.5-.51.76-1.66,2.54-3.24,5.11-4.65,7.7s-2.52,5.36-4.19,7.94c-.25.38-1,.29-1-.09.4-2.68,1.77-5.45,3.06-8.08a83,83,0,0,1,4.38-7.94l.61-.93c-.84-.21-1.7-.38-2.57-.51-.29.86-.52,1.72-.75,2.6-.09.34-.89.44-.93.08a7.43,7.43,0,0,1,.27-2.87c-.76-.08-1.52-.14-2.29-.18-1.07,3.51-1.88,7-2.69,10.51-.11.45-1,.42-1,0a43.47,43.47,0,0,1,1.66-10.53,33.31,33.31,0,0,0-4.51.39c.07.83.13,1.66.19,2.48C213.69,448.58,213.84,455.82,213.69,463.09Z" transform="translate(-29.44 -40.53)"/><path class="cls-4" d="M245.81,463.09c0-.45,0-.9,0-1.35s0-.87,0-1.3c-1.05.87-2.08,1.75-3.08,2.65Z" transform="translate(-29.44 -40.53)"/><path class="cls-4" d="M240.13,463.09q2.56-2.46,5.41-4.78A19.58,19.58,0,0,0,245,456c-.51.48-1,1-1.49,1.45a16,16,0,0,1-3.19,3c-.16.09-.38,0-.35-.1.19-1.11,1.41-2.31,2.28-3.3.74-.81,1.5-1.63,2.3-2.42-.13-.36-.28-.72-.43-1.07a97,97,0,0,0-8.44,9.46Z" transform="translate(-29.44 -40.53)"/><path class="cls-4" d="M196.47,463.09a46.86,46.86,0,0,0-5.21-7,21.22,21.22,0,0,0-.66,3,18.13,18.13,0,0,1,3.26,4Z" transform="translate(-29.44 -40.53)"/><path class="cls-4" d="M192.92,463.09l-2.49-2.16q0,.46,0,.93c0,.41,0,.82,0,1.23Z" transform="translate(-29.44 -40.53)"/><path class="cls-4" d="M223.68,463.09q.93-2.37,1.94-4.73c1.36-3.21,2.85-6.41,4.4-9.6,1-2.13,2-4.36,3.21-6.5l-.64-.35A175,175,0,0,0,221,463.09Z" transform="translate(-29.44 -40.53)"/><path class="cls-4" d="M228.16,463.09c2.08-6.66,4.25-13.32,6.56-20l-.66-.4c-.34.65-.68,1.31-1,2-.87,1.78-1.73,3.55-2.55,5.33-2,4.34-3.78,8.7-5.41,13.07Z" transform="translate(-29.44 -40.53)"/><path class="cls-3" d="M391.83,463.4a104.73,104.73,0,0,1,4.07-26.54,35.48,35.48,0,0,0-3.3,1.53,53.31,53.31,0,0,1-2.72,9.81c-.1.25-.7.24-.72,0A35.87,35.87,0,0,1,390,440a30.85,30.85,0,0,0-4.71,3.74c.81,2.7,1.64,5.4,2.33,8.12.73,2.91,1.74,5.78,1.92,8.79,0,.34-.71.58-.92.25-1.67-2.69-2.49-5.61-3.65-8.43-.82-2-1.5-4-2.19-6a26.18,26.18,0,0,0-4.14,7.27A53.56,53.56,0,0,1,386,463.4Z" transform="translate(-29.44 -40.53)"/><path class="cls-4" d="M396.43,463.4c0-.86,0-1.72,0-2.58a125.89,125.89,0,0,1,1.2-14.56c.35-2.43.66-4.87,1.22-7.31.26-1.13.55-2.26.84-3.38-.66.18-1.31.38-1.94.59-.11.38-.23.77-.33,1.15a105.13,105.13,0,0,0-4,26.09Z" transform="translate(-29.44 -40.53)"/><path class="cls-4" d="M403,463.4q.33-14.29-.76-28.46l-1.17.26c-.17,1.6-.31,3.2-.5,4.8-.32,2.64-.61,5.28-.85,7.93a148.55,148.55,0,0,0-.58,15.47Z" transform="translate(-29.44 -40.53)"/><path class="cls-3" d="M428.06,463.4A117.83,117.83,0,0,1,440,450.07c-.28-.51-.59-1-.91-1.5a22.32,22.32,0,0,1-3.41,3.39c-.23.17-.66,0-.59-.18.47-1.48,1.93-3,3.1-4.33l.07-.08c-.43-.59-.89-1.16-1.37-1.72l-.66,1c-1.64,2.6-3.12,5.24-5,7.79-.26.37-1.15.33-1-.1a41.39,41.39,0,0,1,5-10.46,31.91,31.91,0,0,0-3.16-2.73c-2.58,7.41-5,14.82-7.32,22.23Z" transform="translate(-29.44 -40.53)"/><path class="cls-3" d="M404.84,463.4h6.08a207.28,207.28,0,0,1,14.23-26.22c-1-.44-2.09-.84-3.18-1.19l-.6.9c-2,3-3.86,6.09-5.53,9.17s-3,6.37-5,9.44c-.29.45-1.23.35-1.16-.11.48-3.18,2.11-6.48,3.63-9.61a96.69,96.69,0,0,1,5.22-9.44c.23-.38.48-.75.72-1.12-1-.24-2-.44-3.05-.6-.35,1-.62,2.05-.9,3.09-.11.41-1.06.53-1.11.1a9.11,9.11,0,0,1,.32-3.42c-.89-.1-1.8-.17-2.72-.2-1.27,4.16-2.23,8.33-3.2,12.5-.13.53-1.18.49-1.17,0a51.71,51.71,0,0,1,2-12.53,37.61,37.61,0,0,0-5.36.47c.08,1,.15,2,.22,2.94C404.85,446.14,405,454.76,404.84,463.4Z" transform="translate(-29.44 -40.53)"/><path class="cls-4" d="M443.06,463.4c0-.53.05-1.07.05-1.61s0-1-.06-1.54q-1.87,1.56-3.66,3.15Z" transform="translate(-29.44 -40.53)"/><path class="cls-4" d="M436.3,463.4q3.06-2.91,6.44-5.68a20.89,20.89,0,0,0-.66-2.73c-.6.57-1.19,1.14-1.76,1.73-1.15,1.17-2.21,2.69-3.8,3.63-.19.11-.45,0-.42-.13.22-1.32,1.67-2.75,2.72-3.92.87-1,1.78-1.94,2.73-2.89q-.24-.63-.51-1.26A115,115,0,0,0,431,463.4Z" transform="translate(-29.44 -40.53)"/><path class="cls-4" d="M384.36,463.4a55.86,55.86,0,0,0-6.2-8.37,23.4,23.4,0,0,0-.79,3.55,21.57,21.57,0,0,1,3.88,4.82Z" transform="translate(-29.44 -40.53)"/><path class="cls-4" d="M380.13,463.4c-1-.85-2-1.71-3-2.56,0,.36,0,.73,0,1.1s0,1,.05,1.46Z" transform="translate(-29.44 -40.53)"/><path class="cls-4" d="M416.73,463.4c.74-1.88,1.51-3.75,2.3-5.63,1.62-3.82,3.4-7.62,5.24-11.42,1.23-2.53,2.37-5.18,3.82-7.74l-.77-.41a210.06,210.06,0,0,0-13.8,25.2Z" transform="translate(-29.44 -40.53)"/><path class="cls-4" d="M422.06,463.4c2.48-7.92,5.05-15.84,7.81-23.75l-.79-.47c-.4.78-.81,1.55-1.19,2.33q-1.56,3.17-3,6.34c-2.38,5.16-4.5,10.35-6.44,15.55Z" transform="translate(-29.44 -40.53)"/><path class="cls-3" d="M56.33,465a148.28,148.28,0,0,1,5.77-37.62c-1.61.65-3.17,1.38-4.68,2.17a77.09,77.09,0,0,1-3.85,13.91c-.15.34-1,.33-1,0a51,51,0,0,1,1.12-11.71A45.77,45.77,0,0,0,47,437c1.14,3.83,2.33,7.66,3.3,11.52,1,4.13,2.47,8.18,2.72,12.45,0,.49-1,.83-1.3.35-2.37-3.8-3.52-7.94-5.18-11.94-1.15-2.79-2.12-5.64-3.09-8.48a36.89,36.89,0,0,0-5.87,10.31A75.67,75.67,0,0,1,48,465Z" transform="translate(-29.44 -40.53)"/><path class="cls-4" d="M62.85,465c0-1.22,0-2.45.06-3.67a178,178,0,0,1,1.7-20.63c.5-3.44.93-6.91,1.73-10.36.37-1.6.77-3.2,1.19-4.8-.93.26-1.85.54-2.76.85-.15.54-.31,1.08-.47,1.62a150.07,150.07,0,0,0-5.68,37Z" transform="translate(-29.44 -40.53)"/><path class="cls-4" d="M72.22,465q.47-20.26-1.08-40.34l-1.66.37c-.24,2.27-.44,4.54-.71,6.79-.44,3.76-.87,7.5-1.2,11.24A212.33,212.33,0,0,0,66.75,465Z" transform="translate(-29.44 -40.53)"/><path class="cls-3" d="M107.68,465a167.19,167.19,0,0,1,16.91-18.9c-.4-.72-.84-1.43-1.29-2.13a31.85,31.85,0,0,1-4.83,4.81c-.33.24-.94,0-.85-.25.67-2.11,2.74-4.24,4.41-6.14a.52.52,0,0,1,.1-.11c-.61-.84-1.26-1.66-1.94-2.45l-.94,1.46c-2.33,3.68-4.43,7.42-7.06,11-.38.52-1.63.47-1.45-.14a59.2,59.2,0,0,1,7.13-14.83,45,45,0,0,0-4.48-3.86c-3.65,10.49-7.07,21-10.38,31.51Z" transform="translate(-29.44 -40.53)"/><path class="cls-3" d="M74.77,465h8.62a292.7,292.7,0,0,1,20.17-37.17c-1.46-.63-3-1.19-4.51-1.69l-.85,1.28c-2.8,4.29-5.47,8.63-7.84,13s-4.25,9-7.07,13.38c-.42.64-1.75.5-1.65-.16.68-4.51,3-9.19,5.15-13.61a138.24,138.24,0,0,1,7.4-13.39c.33-.53.68-1.05,1-1.58-1.42-.34-2.86-.63-4.33-.86-.49,1.45-.87,2.91-1.27,4.38-.15.59-1.5.75-1.57.15a12.8,12.8,0,0,1,.45-4.85c-1.27-.14-2.56-.24-3.86-.29-1.8,5.9-3.16,11.81-4.53,17.72-.18.75-1.67.7-1.66,0a72.41,72.41,0,0,1,2.8-17.76,55.64,55.64,0,0,0-7.61.66c.11,1.39.22,2.79.32,4.18C74.78,440.52,75,452.73,74.77,465Z" transform="translate(-29.44 -40.53)"/><path class="cls-4" d="M128.94,465c.05-.76.08-1.52.07-2.28s0-1.46-.08-2.19q-2.67,2.21-5.2,4.47Z" transform="translate(-29.44 -40.53)"/><path class="cls-4" d="M119.36,465q4.32-4.14,9.13-8.06a36.33,36.33,0,0,0-.93-3.87c-.86.81-1.7,1.62-2.51,2.45-1.63,1.67-3.12,3.81-5.38,5.15-.27.15-.64,0-.6-.18.32-1.87,2.38-3.9,3.86-5.55q1.84-2.07,3.87-4.1c-.23-.6-.47-1.2-.73-1.79A162.71,162.71,0,0,0,111.84,465Z" transform="translate(-29.44 -40.53)"/><path class="cls-4" d="M45.74,465A79.52,79.52,0,0,0,37,453.11a33.06,33.06,0,0,0-1.11,5A30.79,30.79,0,0,1,41.33,465Z" transform="translate(-29.44 -40.53)"/><path class="cls-4" d="M39.75,465l-4.21-3.64q0,.78,0,1.56c0,.7,0,1.39.07,2.08Z" transform="translate(-29.44 -40.53)"/><path class="cls-4" d="M91.62,465c1.06-2.67,2.14-5.32,3.26-8,2.3-5.41,4.82-10.81,7.43-16.19,1.74-3.59,3.36-7.34,5.41-11l-1.08-.59A296.35,296.35,0,0,0,87.07,465Z" transform="translate(-29.44 -40.53)"/><path class="cls-4" d="M99.17,465c3.52-11.23,7.17-22.46,11.07-33.67-.36-.23-.74-.45-1.12-.67-.57,1.11-1.15,2.21-1.69,3.31-1.46,3-2.9,6-4.29,9-3.37,7.31-6.38,14.66-9.12,22Z" transform="translate(-29.44 -40.53)"/><polygon class="cls-5" points="212.16 105.72 190.96 143.56 137.15 153.53 147.46 165.97 201.01 154.45 217.84 107.29 212.16 105.72"/><path class="cls-5" d="M256.58,144.24a8.22,8.22,0,0,0-5.36-1.35,7.13,7.13,0,0,1,6.81.75c1.51,1,2.79-1.51,1.29-2.5a9.52,9.52,0,0,0-8.62-1,7,7,0,0,1,8.06.05c1.5,1,2.78-1.52,1.28-2.51a9.5,9.5,0,0,0-8.75-1,6.94,6.94,0,0,1,8.38-.21c1.51,1,2.79-1.52,1.29-2.5a9.57,9.57,0,0,0-11.52.64,11.26,11.26,0,0,0-7.9,8.53,6.94,6.94,0,0,0,.06,3.14,3.93,3.93,0,0,0,1.87,2.43c2.21,1.16,4.63-.41,5.41-2.55a6,6,0,0,1,6.6.26C256.77,147.24,257.86,145.08,256.58,144.24Z" transform="translate(-29.44 -40.53)"/><polygon class="cls-4" points="225.59 98.35 183.72 413.31 187.66 417.26 403.19 417.26 426.94 217.61 441.13 98.35 437.18 94.4 225.59 98.35"/><path class="cls-6" d="M223.45,367.25l-10.3,86.59H428.69L452.43,254.2c-76.92,30.29-150.81,66.61-226.17,111.41C225.31,366.14,224.38,366.69,223.45,367.25Z" transform="translate(-29.44 -40.53)"/><path class="cls-7" d="M251.09,134.93,223.45,367.25c.93-.56,1.86-1.11,2.81-1.64,75.36-44.8,149.25-81.12,226.17-111.41l14.19-119.27Z" transform="translate(-29.44 -40.53)"/><polygon class="cls-8" points="387.62 401.11 198.25 401.11 233.28 106.61 422.65 106.61 387.62 401.11"/><path class="cls-9" d="M389.65,180.16H272c-2.52,0-2.53,3.92,0,3.92h117.7C392.17,184.08,392.18,180.16,389.65,180.16Z" transform="translate(-29.44 -40.53)"/><path class="cls-10" d="M437.1,192.3l2.19-18.45a3,3,0,0,0-3-3.39H410.64a3,3,0,0,0-3,2.67l-2.19,18.46a3,3,0,0,0,3,3.39h25.64A3,3,0,0,0,437.1,192.3Z" transform="translate(-29.44 -40.53)"/><path class="cls-9" d="M383.19,236.46H265.5c-2.53,0-2.53,3.93,0,3.93H383.19C385.72,240.39,385.72,236.46,383.19,236.46Z" transform="translate(-29.44 -40.53)"/><path class="cls-10" d="M430.64,248.61l2.2-18.46a3,3,0,0,0-3-3.39H404.18a3,3,0,0,0-3,2.67L399,247.89a3,3,0,0,0,3,3.39h25.64A3,3,0,0,0,430.64,248.61Z" transform="translate(-29.44 -40.53)"/><path class="cls-9" d="M376.74,292.76H259c-2.52,0-2.52,3.93,0,3.93h117.7C379.26,296.69,379.27,292.76,376.74,292.76Z" transform="translate(-29.44 -40.53)"/><path class="cls-10" d="M424.19,304.91l2.19-18.46a3,3,0,0,0-3-3.39H397.73a3,3,0,0,0-3,2.67l-2.2,18.46a3,3,0,0,0,3,3.39h25.64A3,3,0,0,0,424.19,304.91Z" transform="translate(-29.44 -40.53)"/><path class="cls-9" d="M370.29,349.06H252.59c-2.52,0-2.53,3.93,0,3.93h117.7C372.81,353,372.82,349.06,370.29,349.06Z" transform="translate(-29.44 -40.53)"/><path class="cls-10" d="M417.74,361.21l2.19-18.46a3,3,0,0,0-3-3.39H391.28a3,3,0,0,0-3,2.67l-2.19,18.46a3,3,0,0,0,3,3.39h25.64A3,3,0,0,0,417.74,361.21Z" transform="translate(-29.44 -40.53)"/><path class="cls-9" d="M363.83,405.36H246.14c-2.53,0-2.53,3.93,0,3.93H363.83C366.36,409.29,366.36,405.36,363.83,405.36Z" transform="translate(-29.44 -40.53)"/><path class="cls-10" d="M411.28,417.51l2.2-18.46a3,3,0,0,0-3-3.39H384.82a3,3,0,0,0-3,2.68l-2.2,18.45a3,3,0,0,0,3,3.39h25.64A3,3,0,0,0,411.28,417.51Z" transform="translate(-29.44 -40.53)"/><path class="cls-4" d="M435.17,163.67l-10.29,13.52c-1.47,1.93-2.84,4.33-4.58,6-1.38,1.36-1.38,2.08-3.37,1.05-1.1-.58-2.47-2.35-3.33-3.17-1.83-1.74-4.61,1-2.77,2.77,3.75,3.57,6.94,8.86,11.15,3.59,5.68-7.13,11-14.53,16.57-21.79C440.08,163.64,436.68,161.69,435.17,163.67Z" transform="translate(-29.44 -40.53)"/><path class="cls-4" d="M424.08,274.33l-10.29,13.53c-1.47,1.93-2.84,4.32-4.57,6-1.39,1.35-1.39,2.07-3.37,1-1.11-.58-2.47-2.35-3.33-3.17-1.83-1.74-4.61,1-2.78,2.77,3.76,3.57,6.95,8.86,11.15,3.59,5.68-7.13,11.06-14.53,16.58-21.79C429,274.3,425.59,272.35,424.08,274.33Z" transform="translate(-29.44 -40.53)"/><path class="cls-4" d="M432.94,218.1l-10.28,13.53c-1.47,1.93-2.84,4.32-4.58,6-1.39,1.35-1.38,2.07-3.37,1-1.1-.58-2.47-2.35-3.33-3.17-1.83-1.74-4.61,1-2.77,2.77,3.75,3.57,6.94,8.86,11.14,3.59,5.69-7.13,11.06-14.53,16.58-21.79C437.86,218.07,434.46,216.12,432.94,218.1Z" transform="translate(-29.44 -40.53)"/><path class="cls-11" d="M126.45,406.43l1.86-8.55.15-12.93a31.15,31.15,0,0,0-10.58-2l.12,21.68Z" transform="translate(-29.44 -40.53)"/><path class="cls-12" d="M118.07,417.55c5.28-.05,8.41-5.84,8.38-11.12h0c0-5.28-3.21-8.05-8.49-8Z" transform="translate(-29.44 -40.53)"/><path class="cls-3" d="M180.2,271.8a293.06,293.06,0,0,1,22.39,96.26,22.28,22.28,0,0,1-13.77,1.43,197.22,197.22,0,0,1-27.07-58.06C155,305.88,151,297.74,151.9,289A27.21,27.21,0,0,1,166,268a14,14,0,0,1,8.5-1.87C177.46,266.61,179.05,269.08,180.2,271.8Z" transform="translate(-29.44 -40.53)"/><path class="cls-3" d="M138.65,264c-8,6.1-12.81,15.73-14.58,25.64s-.73,20.12,1.26,30a157.39,157.39,0,0,0,24.89,58.35,17.22,17.22,0,0,0,13.25-2.77c-1.64-24.14-3-47.38-4.67-71.53-.48-7.05,3.06-13.76,2.68-20.82s-3.56-14.38-9.73-17.85C148.13,262.91,142,261.42,138.65,264Z" transform="translate(-29.44 -40.53)"/><path class="cls-13" d="M175.35,130.34a18.69,18.69,0,0,1,11.79,31.46c4.07,4.66,4.83,12.29,3,18.21s-6,10.89-10.89,14.64a43.1,43.1,0,0,1-25.9,8.74c-4.55.22-9.21.46-13.59-.8s-8.53-4.05-10.4-8.2a12.43,12.43,0,0,1,4.45-15.07,15.69,15.69,0,0,1-4.32-1,4.94,4.94,0,0,1-2.65-3c-.65-2.33,1-4.62,2.6-6.46q3.08-3.62,6.16-7.24a7.35,7.35,0,0,1-3-7,18.2,18.2,0,0,1,3-7.86,48.29,48.29,0,0,1,31.92-21.92c2-.37,4.19-.59,6,.31S176.41,128.6,175.35,130.34Z" transform="translate(-29.44 -40.53)"/><path class="cls-14" d="M180.85,231.12a152.56,152.56,0,0,1,2.69,48.64,2.4,2.4,0,0,1-.42,1.31,2.33,2.33,0,0,1-1.44.66C164.88,285,141.62,281.37,128,271c12.53-10.19,23.28-28.92,18.33-44.3-1.76-5.44-4.66-10.43-6.76-15.75s-3.35-11.29-1.64-16.75a4.14,4.14,0,0,1,.91-1.75,4.6,4.6,0,0,1,2.07-1c12-3.44,23.16.21,33,6.84a17.1,17.1,0,0,1,3.51,3.12c3.7,4.36,8.42,9,10.26,14.44a14.66,14.66,0,0,1,.7,3.15c0,.14,0,.27.05.41C188.85,224.45,185.79,230,180.85,231.12Z" transform="translate(-29.44 -40.53)"/><path class="cls-5" d="M152.48,171.9A87.1,87.1,0,0,1,151,190.31c-.39-.59-2-.07-2.41.59a2.65,2.65,0,0,0-.08,2.25,4.53,4.53,0,0,0,1.27,1.64,17.93,17.93,0,0,0,12.65,4.82,5.12,5.12,0,0,0,2.49-.56,3.21,3.21,0,0,0,.59-5.21,6.53,6.53,0,0,0-2.45-1.24c.46-4.58.51-8.91,1-13.49Z" transform="translate(-29.44 -40.53)"/><path class="cls-15" d="M159.87,189.71a31.75,31.75,0,0,0,3.22,2.64c.44-4.49.5-8.74.95-13.24l-11.56-7.21c0,1.07,0,2.15,0,3.23a14.61,14.61,0,0,0,2.49,8.53A36.65,36.65,0,0,0,159.87,189.71Z" transform="translate(-29.44 -40.53)"/><path class="cls-5" d="M183.23,152.51c-.46,10.17-4.26,30.19-12.68,32.75-3.48,1.05-16.08-7.59-18.38-11.69a5,5,0,0,1-5.32-3.37,7.53,7.53,0,0,1-.6-2.45c1-.13,2-.29,3-.5s1.91-.44,2.85-.71a35,35,0,0,0,22.07-18.72,41.94,41.94,0,0,1,7.9,2.75A2,2,0,0,1,183.23,152.51Z" transform="translate(-29.44 -40.53)"/><path class="cls-13" d="M170.25,156.43a8.15,8.15,0,0,0-8.92-.51c-.87.48,0,1.72.9,1.24a6.56,6.56,0,0,1,7.05.47C170.08,158.21,171.06,157,170.25,156.43Z" transform="translate(-29.44 -40.53)"/><path class="cls-13" d="M183.23,158.21a5,5,0,0,0-6.92-.5c-.72.61.14,1.81.86,1.19a3.55,3.55,0,0,1,4.88.17C182.68,159.76,183.88,158.9,183.23,158.21Z" transform="translate(-29.44 -40.53)"/><path class="cls-16" d="M167.16,159.48c.08-1-1.44-1.23-1.52-.24s-.17,2-.25,2.94,1.44,1.23,1.52.24S167.08,160.46,167.16,159.48Z" transform="translate(-29.44 -40.53)"/><path class="cls-16" d="M181,161.05c.09-1-1.44-1.23-1.52-.24s-.16,2-.25,2.94,1.44,1.23,1.53.24Z" transform="translate(-29.44 -40.53)"/><path class="cls-15" d="M174.91,170.53a2.53,2.53,0,0,1-2.23.12c-.63-.24-.91.77-.29,1a3.59,3.59,0,0,0,3-.21A.52.52,0,0,0,174.91,170.53Z" transform="translate(-29.44 -40.53)"/><path class="cls-15" d="M151.3,170.83a2.87,2.87,0,0,1-2.2-2.61,2.44,2.44,0,0,1,.16-1c1-.19,1.91-.44,2.85-.71a.63.63,0,0,1-.43.37,1.23,1.23,0,0,0-.14,2.39C152.47,169.57,152.24,171.1,151.3,170.83Z" transform="translate(-29.44 -40.53)"/><path class="cls-17" d="M174.1,175.66a3.6,3.6,0,0,1-4.45-1.09c-.39-.54-1.3,0-.9.53a4.67,4.67,0,0,0,5.88,1.47C175.23,176.27,174.7,175.37,174.1,175.66Z" transform="translate(-29.44 -40.53)"/><path class="cls-3" d="M151.65,368.91c-8.66,10.4-11.39,24.74-10.28,38.24s5.68,26.42,10.2,39.18c.9,2.54.73,3.86,1,6.53,3.27.15,6.56.74,9.83.89-8.3-28.63,6-59.93-.38-89Z" transform="translate(-29.44 -40.53)"/><path class="cls-3" d="M194.05,360.94c-12.89-4.15-27.21-1.31-39.3,4.76-9.95,5-18.68,12-27.1,19.35a96,96,0,0,0,.55,11.84c22.7-12.5,52-13,73.64-27.88Z" transform="translate(-29.44 -40.53)"/><path class="cls-4" d="M156.48,306.36a37.41,37.41,0,0,0-13-11.2c-1.19-.62-2.25,1.19-1.06,1.81a35,35,0,0,1,12.21,10.44C155.45,308.49,157.27,307.45,156.48,306.36Z" transform="translate(-29.44 -40.53)"/><path class="cls-4" d="M143,300.42l-3.6-.91a1,1,0,0,0-.56,2l3.6.91A1,1,0,0,0,143,300.42Z" transform="translate(-29.44 -40.53)"/><path class="cls-4" d="M162.83,364.76c-.14-1.33-2.24-1.34-2.1,0a157.51,157.51,0,0,1-1.52,43.52c-.23,1.32,1.79,1.89,2,.56A159.23,159.23,0,0,0,162.83,364.76Z" transform="translate(-29.44 -40.53)"/><path class="cls-4" d="M155.31,382.84q-1.65-2.55-3.31-5.1c-.73-1.12-2.55-.07-1.81,1.06q1.67,2.55,3.31,5.1C154.23,385,156.05,384,155.31,382.84Z" transform="translate(-29.44 -40.53)"/><path class="cls-4" d="M175.37,300.76a45.85,45.85,0,0,1-16.08,7c-1.32.3-.76,2.32.56,2a47.27,47.27,0,0,0,16.57-7.25C177.53,301.81,176.48,300,175.37,300.76Z" transform="translate(-29.44 -40.53)"/><path class="cls-4" d="M189.73,367.59l-11.94-19.84a1,1,0,0,0-1.81,1.06l11.94,19.84A1,1,0,0,0,189.73,367.59Z" transform="translate(-29.44 -40.53)"/><path class="cls-4" d="M185.69,370.81l-1.5-5.1a1,1,0,0,0-2,.55l1.5,5.1A1,1,0,0,0,185.69,370.81Z" transform="translate(-29.44 -40.53)"/><path class="cls-18" d="M164.41,252a126,126,0,0,1-18.17-31.76c-.5-1.29-2.61-.73-2.09.58a129.19,129.19,0,0,0,18.72,32.72C163.74,254.59,165.27,253,164.41,252Z" transform="translate(-29.44 -40.53)"/><path class="cls-18" d="M166.33,274.35a84.2,84.2,0,0,1-19.13-18.5c-.8-1.07-2.62,0-1.81,1a87.15,87.15,0,0,0,19.88,19.26C166.38,276.93,167.43,275.12,166.33,274.35Z" transform="translate(-29.44 -40.53)"/><path class="cls-18" d="M178.87,268.53a11.57,11.57,0,0,1-5.43,1.14c-1.35,0-1.35,2.06,0,2.1a14,14,0,0,0,6.49-1.43C181.14,269.75,180.08,268,178.87,268.53Z" transform="translate(-29.44 -40.53)"/><path class="cls-5" d="M145,210.75a13.4,13.4,0,0,0,2.29-13.27c-.89-2.34-2.74-4.54-5.17-4.79a9.07,9.07,0,0,0-4.37,1L84.45,216.49a8,8,0,0,0,3.07,10.07c3.53,2,7.86.72,11.67-.56C114.23,221,129.94,215.8,145,210.75Z" transform="translate(-29.44 -40.53)"/><path class="cls-4" d="M117.3,465.81l-21-.13a.41.41,0,0,1-.41-.42l1.87-299.5a.41.41,0,0,1,.41-.41l21,.13a.42.42,0,0,1,.41.42l-1.86,299.5A.41.41,0,0,1,117.3,465.81Z" transform="translate(-29.44 -40.53)"/><rect class="cls-4" x="102.09" y="165.42" width="11.24" height="300.33" transform="translate(-27.47 -41.19) rotate(0.36)"/><polygon class="cls-4" points="79.34 105.09 74.81 113.17 83.76 113.22 79.34 105.09"/><polygon class="cls-19" points="74.81 113.17 68.29 124.82 90.14 124.96 83.76 113.22 74.81 113.17"/><path class="cls-5" d="M105.65,164a9.12,9.12,0,0,0-4.5,4.23,8,8,0,0,1,4.82-6c1.84-.82.25-3.53-1.59-2.71a10.66,10.66,0,0,0-6.18,7.48,7.8,7.8,0,0,1,4.9-7.55c1.85-.82.25-3.53-1.58-2.72a10.69,10.69,0,0,0-6.22,7.65,7.76,7.76,0,0,1,4.86-8c1.85-.82.25-3.53-1.59-2.71a10.68,10.68,0,0,0-6.34,11.22,12.55,12.55,0,0,0,3.3,12.56,7.78,7.78,0,0,0,3,1.83A4.44,4.44,0,0,0,102,179c2.42-1.38,2.4-4.6.85-6.62a6.71,6.71,0,0,1,4.21-6.05C108.6,165.64,107.23,163.32,105.65,164Z" transform="translate(-29.44 -40.53)"/><path class="cls-5" d="M96,174.34c-4.8,10.17-8.53,30.21-13.06,42.84a7.73,7.73,0,0,0,4.52,9.92l.29.1a7.7,7.7,0,0,0,10-6c2.86-15.44,5.94-44.15,5.94-44.15Z" transform="translate(-29.44 -40.53)"/><path class="cls-11" d="M174.11,455.06,165,452.72l-12.93-.22a31.11,31.11,0,0,0-2,10.57H171.7Z" transform="translate(-29.44 -40.53)"/><path class="cls-12" d="M184.6,463.07c0-5.27-5.21-8-10.49-8h0c-5.28,0-8.65,2.74-8.67,8Z" transform="translate(-29.44 -40.53)"/><path class="cls-5" d="M245.81,145.62a6.08,6.08,0,0,0,4-1.08,4.1,4.1,0,0,0,1.87-3.06,17.76,17.76,0,0,0,3.41-2,3.82,3.82,0,0,0,1.64-2.92,27.82,27.82,0,0,0-11.49,5.39Z" transform="translate(-29.44 -40.53)"/><path class="cls-11" d="M442.17,463.06H36.91a1.71,1.71,0,1,0,0,3.38H442.17A1.71,1.71,0,1,0,442.17,463.06Z" transform="translate(-29.44 -40.53)"/><path class="cls-3" d="M291.47,465.13a152,152,0,0,1,5.88-38.32,50.37,50.37,0,0,0-4.76,2.21,78.35,78.35,0,0,1-3.93,14.17c-.15.35-1,.34-1,0a51.12,51.12,0,0,1,1.14-11.92,45.66,45.66,0,0,0-6.8,5.39c1.15,3.9,2.37,7.8,3.36,11.74,1.06,4.2,2.51,8.33,2.77,12.68,0,.5-1,.84-1.33.36-2.41-3.87-3.59-8.09-5.28-12.17-1.17-2.84-2.16-5.74-3.15-8.63a37.44,37.44,0,0,0-6,10.5,77.62,77.62,0,0,1,10.65,14Z" transform="translate(-29.44 -40.53)"/><path class="cls-4" d="M298.12,465.13c0-1.24,0-2.49.06-3.73a180.3,180.3,0,0,1,1.73-21c.51-3.51.95-7,1.76-10.55.38-1.63.79-3.26,1.21-4.89-.95.26-1.88.55-2.8.86l-.48,1.66a152.68,152.68,0,0,0-5.79,37.67Z" transform="translate(-29.44 -40.53)"/><path class="cls-4" d="M307.67,465.13q.46-20.64-1.11-41.09c-.56.12-1.12.24-1.68.38-.25,2.31-.46,4.62-.73,6.92-.45,3.82-.88,7.63-1.23,11.45a217.16,217.16,0,0,0-.83,22.34Z" transform="translate(-29.44 -40.53)"/><path class="cls-3" d="M343.79,465.13A168.75,168.75,0,0,1,361,445.89c-.42-.74-.86-1.47-1.32-2.18a32.12,32.12,0,0,1-4.92,4.9c-.34.25-1,0-.86-.26.68-2.14,2.79-4.32,4.49-6.25l.1-.12q-.94-1.28-2-2.49l-1,1.49c-2.37,3.75-4.51,7.56-7.18,11.24-.39.53-1.67.48-1.49-.14A60.25,60.25,0,0,1,354.17,437,44.34,44.34,0,0,0,349.6,433c-3.71,10.68-7.2,21.38-10.57,32.09Z" transform="translate(-29.44 -40.53)"/><path class="cls-3" d="M310.26,465.13h8.79a297.22,297.22,0,0,1,20.54-37.86q-2.23-1-4.59-1.72c-.29.43-.59.87-.87,1.3-2.85,4.37-5.57,8.79-8,13.24s-4.34,9.2-7.21,13.63c-.42.66-1.78.51-1.68-.16.69-4.59,3.05-9.36,5.25-13.87A142.36,142.36,0,0,1,330,426.05c.34-.54.7-1.07,1-1.6-1.44-.35-2.91-.65-4.4-.88-.5,1.48-.9,3-1.3,4.47-.16.59-1.52.76-1.6.14a13,13,0,0,1,.46-4.93q-1.94-.22-3.93-.3c-1.83,6-3.22,12-4.62,18.05-.18.77-1.7.71-1.69,0a73.66,73.66,0,0,1,2.85-18.09,57.84,57.84,0,0,0-7.75.67q.18,2.13.33,4.26Q310.69,446.4,310.26,465.13Z" transform="translate(-29.44 -40.53)"/><path class="cls-4" d="M365.44,465.13c.06-.77.08-1.54.08-2.32s0-1.49-.08-2.23c-1.81,1.5-3.58,3-5.3,4.55Z" transform="translate(-29.44 -40.53)"/><path class="cls-4" d="M355.69,465.13q4.41-4.22,9.3-8.21A35.31,35.31,0,0,0,364,453c-.87.83-1.73,1.66-2.56,2.5-1.66,1.7-3.17,3.88-5.48,5.24-.27.16-.65,0-.61-.18.33-1.9,2.42-4,3.93-5.66,1.26-1.4,2.57-2.8,3.95-4.17-.23-.61-.48-1.22-.75-1.82A167.63,167.63,0,0,0,348,465.13Z" transform="translate(-29.44 -40.53)"/><path class="cls-4" d="M280.69,465.13a80.54,80.54,0,0,0-9-12.09,35.24,35.24,0,0,0-1.13,5.13,31.37,31.37,0,0,1,5.6,7Z" transform="translate(-29.44 -40.53)"/><path class="cls-4" d="M274.58,465.13c-1.42-1.24-2.84-2.47-4.28-3.7,0,.53,0,1.05,0,1.59,0,.71,0,1.41.08,2.11Z" transform="translate(-29.44 -40.53)"/><path class="cls-4" d="M327.43,465.13q1.6-4.06,3.32-8.12c2.34-5.52,4.91-11,7.57-16.5,1.77-3.65,3.42-7.48,5.51-11.17l-1.1-.59a301.72,301.72,0,0,0-19.93,36.38Z" transform="translate(-29.44 -40.53)"/><path class="cls-4" d="M335.12,465.13c3.59-11.44,7.3-22.88,11.28-34.29-.37-.24-.76-.46-1.14-.69-.58,1.13-1.17,2.25-1.72,3.37-1.49,3.05-3,6.1-4.37,9.16-3.44,7.45-6.5,14.94-9.3,22.45Z" transform="translate(-29.44 -40.53)"/></g></g></svg>