<svg xmlns="http://www.w3.org/2000/svg" xmlns:xlink="http://www.w3.org/1999/xlink" viewBox="0 0 262.98 48.51"><defs><style>.cls-1{fill:url(#Безымянный_градиент_66);}.cls-2{fill:url(#linear-gradient);}.cls-3{fill:#1b1b1b;}.cls-4{fill:url(#linear-gradient-2);}.cls-5{fill:#e6007e;}.cls-6{fill:#007199;}.cls-7{fill:#564d54;}.cls-8{fill:#9dc5e0;}.cls-9{fill:#fff;}.cls-10{fill:#1d1d1b;}</style><linearGradient id="Безымянный_градиент_66" x1="79.99" y1="81.88" x2="148.28" y2="-36.41" gradientUnits="userSpaceOnUse"><stop offset="0" stop-color="#d2d2d2"/><stop offset="0.15" stop-color="#c4cdce"/><stop offset="0.42" stop-color="#a1bfc3"/><stop offset="0.79" stop-color="#68a9b1"/><stop offset="1" stop-color="#449ba6"/></linearGradient><linearGradient id="linear-gradient" x1="234.25" y1="-22.29" x2="250.03" y2="-22.29" gradientTransform="matrix(0.96, 0.27, -0.27, 0.96, 7.52, -5.81)" gradientUnits="userSpaceOnUse"><stop offset="0.3" stop-color="#113745"/><stop offset="1" stop-color="#b0ccd9"/></linearGradient><linearGradient id="linear-gradient-2" x1="217.86" y1="-32.13" x2="250.75" y2="-32.13" gradientTransform="matrix(0.96, 0.27, -0.27, 0.96, 7.52, -5.81)" gradientUnits="userSpaceOnUse"><stop offset="0" stop-color="#0b4a75"/><stop offset="1" stop-color="#00d9de"/></linearGradient></defs><g id="objects"><path class="cls-1" d="M22.31,31.44l3.8-25.18h7.76V41.73H28.6V16.29L24.74,41.73H19.47L15.32,16.65V41.73H10.45V6.26h7.76ZM43.14,30l-7-23.71h5.82l4.26,16.16L50.44,6.26h5.32L48.71,30V41.73H43.14ZM64.32,6.26H81.55v5.06H75.73V41.73H70.15V11.32H64.32Zm19.31,8.51c0-2.87.73-5.08,2.18-6.61a8.22,8.22,0,0,1,6.28-2.31,8.23,8.23,0,0,1,6.29,2.31c1.45,1.53,2.18,3.74,2.18,6.61V33.22q0,4.31-2.18,6.61a8.23,8.23,0,0,1-6.29,2.31,8.22,8.22,0,0,1-6.28-2.31q-2.18-2.31-2.18-6.61Zm5.58,18.8A3.77,3.77,0,0,0,90,36.28a3.2,3.2,0,0,0,4.21,0A3.77,3.77,0,0,0,95,33.57V14.42a3.81,3.81,0,0,0-.78-2.72,3.23,3.23,0,0,0-4.21,0,3.81,3.81,0,0,0-.78,2.72ZM112,6.26h8.82q4.2,0,6.26,2.23t2,6.53V33q0,4.32-2,6.54t-6.26,2.23H112Zm5.58,5.06V36.66h3.14a2.8,2.8,0,0,0,2.08-.76,3.76,3.76,0,0,0,.76-2.68V14.77a3.81,3.81,0,0,0-.76-2.69,2.84,2.84,0,0,0-2.08-.76Zm14.64,3.45c0-2.87.73-5.08,2.18-6.61a9.71,9.71,0,0,1,12.57,0c1.45,1.53,2.18,3.74,2.18,6.61V33.22q0,4.31-2.18,6.61a9.71,9.71,0,0,1-12.57,0q-2.17-2.31-2.18-6.61Zm5.58,18.8a3.77,3.77,0,0,0,.78,2.71,3.2,3.2,0,0,0,4.21,0,3.77,3.77,0,0,0,.78-2.71V14.42a3.81,3.81,0,0,0-.78-2.72,3.23,3.23,0,0,0-4.21,0,3.81,3.81,0,0,0-.78,2.72Zm22.8-27.31h5.58v30.4h9.17v5.07H160.61Zm17.28,0h5.58V41.73h-5.58Zm8.92,8.51c0-2.87.69-5.08,2.05-6.61s3.42-2.31,6.16-2.31,4.79.77,6.16,2.31,2,3.74,2,6.61v1.37H198V14.42a4,4,0,0,0-.73-2.72,3.1,3.1,0,0,0-4.11,0,4,4,0,0,0-.73,2.72,6.28,6.28,0,0,0,.81,3.21,13.43,13.43,0,0,0,2,2.64c.81.83,1.68,1.66,2.61,2.48a24.81,24.81,0,0,1,2.61,2.71,13.86,13.86,0,0,1,2,3.35,11.06,11.06,0,0,1,.81,4.41q0,4.31-2.1,6.61T195,42.14q-4.11,0-6.21-2.31t-2.1-6.61V30.79h5.27v2.78a3.65,3.65,0,0,0,.79,2.69,3.28,3.28,0,0,0,4.2,0,3.69,3.69,0,0,0,.79-2.69,6.31,6.31,0,0,0-.81-3.22,13.74,13.74,0,0,0-2-2.63c-.81-.83-1.68-1.66-2.61-2.48a24.91,24.91,0,0,1-2.61-2.72,13.79,13.79,0,0,1-2-3.34A11.06,11.06,0,0,1,186.81,14.77ZM205,6.26h17.23v5.06h-5.82V41.73h-5.58V11.32H205Z"/><path class="cls-2" d="M255,38.07l-2.36,1.18a1.87,1.87,0,0,1-1.05.36l-13.47.12,1.48-1.31,13.77-.14h.88A2,2,0,0,0,255,38.07Z"/><path class="cls-3" d="M234,38.46l-4.83,8.74-.63,1.2-.87-.66L232,39.83l-1.53,0A1.89,1.89,0,0,1,228.57,38l-.31-27.39a1.84,1.84,0,0,1,.31-1.07l.16-.22,1.66-2.12a2.06,2.06,0,0,0-.3,1v.48l.32,27.88a1.94,1.94,0,0,0,2,1.92Z"/><path class="cls-4" d="M255,38.07a1.93,1.93,0,0,1-.74.16h-.88l-13.77.14-1.48,1.32-9.61,8.7.66-1.19L234,38.47l-1.58,0a2,2,0,0,1-2-1.93l-.33-27.91,0-.45a2.06,2.06,0,0,1,.3-1l.24-.32h0A1.89,1.89,0,0,1,232,6.24L253.85,6a1.94,1.94,0,0,1,2,1.92h0l.34,28.39A1.94,1.94,0,0,1,255,38.07Z"/><path class="cls-5" d="M230.62,6.85l-.23.32A1.44,1.44,0,0,1,230.62,6.85Z"/><path class="cls-6" d="M238.56,5a1.91,1.91,0,0,0-.41,1.17l-1.71,0,.31.41,2.08-.06Z"/><path class="cls-7" d="M238,36.52,257,36.3c-1.58-2.9-4.76-6.56-5.68-15.63a40,40,0,0,1,.89-13.4l-19,.23a36.34,36.34,0,0,0-.65,16.3C234,31.45,236.47,33.94,238,36.52Z"/><path class="cls-8" d="M240.74,34.49l19.07-.22c-2-1.82-5.11-7.81-7-14.76a28.08,28.08,0,0,1-.67-11.89l-19,.24a23.8,23.8,0,0,0,.68,14.31C236,28.14,239,33.21,240.74,34.49Z"/><path class="cls-9" d="M241.7,32.82l19.07-.23a46.11,46.11,0,0,1-8.65-25l-19.07.22a36.52,36.52,0,0,0,8.65,25Z"/><path class="cls-3" d="M251.66,9.62l-1.17-1.14-.85-1.08-2.57,0-.43-2.53h0l-1.5-1.24-5.55.05-1,1.27L239,7.53l-2.58,0,.19,1.08-1.42,1.18Zm-8.87-5.41a.76.76,0,0,1,.51.92.74.74,0,0,1-.92.52h0a.73.73,0,0,1-.49-.83h0a.25.25,0,0,1,0-.07.74.74,0,0,1,.91-.52h0Z"/><path class="cls-3" d="M243.3,5.14a.73.73,0,0,1-.91.52h0a.64.64,0,1,0-.49-.84.14.14,0,0,1,0-.06.73.73,0,0,1,.92-.51.75.75,0,0,1,.51.92Z"/><path class="cls-10" d="M246.67,21.91a1.05,1.05,0,1,1-.72-1.3h0A1.06,1.06,0,0,1,246.67,21.91Z"/><path class="cls-10" d="M251.48,21.52a1,1,0,0,1-1.3.72,1,1,0,0,1,.57-2h0A1.05,1.05,0,0,1,251.48,21.52Z"/><path class="cls-10" d="M241.41,22.06a1.05,1.05,0,1,1-.73-1.3h0A1,1,0,0,1,241.41,22.06Z"/></g></svg>